<?xml version="1.0" encoding="UTF-8"?>
<svg id="b" data-name="Layer_2" xmlns="http://www.w3.org/2000/svg" width="2000" height="2000" viewBox="0 0 2000 2000">
  <path d="M824.79,598.964c-48.081-28.552-67.129-68.157-73.328-84.789,7.398-13.413,15.782-28.87,39.714-44.339,28.494-18.417,57.039-22.211,57.039-22.211l-49.935-11.673c-116.295-27.187-201.957,16.945-242.668,45.669-24.71,17.434-42.572,43.246-50.294,72.679-28.059,106.94-14.426,222.787-13.832,227.666l4.149,34.079,28.054-19.789c1.297-.915,130.383-91.859,192.449-125.904,57.81-31.709,98.235-33.212,98.518-33.221l72.356-1.218-62.223-36.95Z" fill="#1b1464"/>
  <circle cx="1089.667" cy="1026.162" r="81.312" fill="#1b1464"/>
  <path d="M693.232,980.019c22.057-22.201,27.821-56.276,12.809-83.736-10.685-19.546-33.204-42.271-73.493-28.668-62.026,20.942-74.077,83.595-74.324,111.001-.111,12.273,4.415,24.258,13.111,32.918,13.239,13.184,39.024,22.503,87.275-5.793,0,0,18.381-9.375,34.623-25.722Z" fill="#1b1464"/>
  <path d="M1728.529,748.528c-.726-1.556-18.204-38.557-55.023-78.25-49.113-52.948-109.792-85.791-175.478-94.978-37.772-5.281-77.187.748-117.163,17.921-31.059,13.344-62.519,33.439-93.507,59.727-52.094,44.193-84.889,90.508-86.26,92.458l-15.1,21.485,24.497,9.462c115.454,44.593,137.254,87.654,139.974,109.352,3.916,31.259,18.169,60.132,40.132,81.299l73.434,70.772,4.635-41.411c7.601-67.924,34.999-125.518,81.431-171.182,28.518-28.047,48.635-42.847,58.017-47.452l34.641-3.217c26.713-2.481,53.654.01,79.459,7.347l25.212,7.168-18.9-40.5Z" fill="#1b1464"/>
  <g>
    <path d="M271.592,1637.73c4.392-41.297,7.555-74.982,9.49-101.059,3.691-47.597,6.46-94.889,8.306-141.875,1.845-46.986,2.768-85.442,2.768-115.366,23.78.354,44.849.525,63.211.525,12.415,0,30.252-.172,53.507-.525l-6.325,95.023-7.907,148.569-1.054,36.486c30.108.525,49.713.788,58.818.788,46.043,0,80.88-.612,104.512-1.838l-5.775,79.272c-46.026-.349-89.862-.525-131.507-.525-56.349,0-105.698.176-148.045.525Z" fill="#1b1464"/>
    <path d="M590.256,1637.73l5.213-67.197,6.78-131.245,2.867-92.922c.172-9.975.262-19.95.262-29.923,0-7.523-.09-19.86-.262-37.013,23.107.525,41.662.788,55.668.788,13.477,0,31.942-.393,55.402-1.181,23.456-.787,43.327-1.181,59.61-1.181,23.456,0,40.83,1.49,52.12,4.463,11.289,2.977,21.484,7.657,30.589,14.043,9.106,6.389,16.631,13.871,22.583,22.443,5.949,8.576,10.414,18.334,13.391,29.268,2.977,10.938,4.467,22.094,4.467,33.467,0,23.452-5.688,44.887-17.061,64.311-11.378,19.424-27.391,33.951-48.037,43.573-20.65,9.626-43.836,14.437-69.56,14.437-9.449,0-20.388-1.051-32.811-3.15-1.403-8.047-4.028-20.036-7.875-35.961-3.851-15.922-7.001-27.733-9.449-35.436,7.698,1.575,15.75,2.362,24.149,2.362,17.673,0,30.843-4.24,39.506-12.73,8.66-8.486,12.992-18.855,12.992-31.106,0-5.946-.962-11.242-2.886-15.88-1.928-4.635-4.987-8.441-9.188-11.419-4.201-2.974-8.838-4.897-13.912-5.774-5.077-.873-10.852-1.312-17.324-1.312-6.3,0-12.862.176-19.687.524l-22.049,1.575c-2.252,33.776-3.982,71.312-5.196,112.609-2.252,75.249-3.375,120.397-3.375,135.445v34.124l-52.281-.525c-7.358,0-25.572.176-54.643.525Z" fill="#1b1464"/>
    <path d="M933.33,1637.73l10.159-143.319,4.688-104.472,1.3-46.46c.349-13.474.525-26.421.525-38.849l-.263-25.2c27.504.354,48.085.525,61.751.525,10.689,0,29.256-.172,55.709-.525-4.151,50.227-6.828,94.588-8.034,133.083h142.877c.864-14.375,1.689-33.796,2.473-58.256.779-24.46,1.173-41.162,1.173-50.103,0-4.734-.176-12.977-.524-24.724l62.128.525c6.464,0,24.814-.172,55.05-.525-6.251,89.949-10.245,156.839-11.981,200.675-1.739,43.836-2.605,96.379-2.605,157.625l-57.28-.525c-8.584,0-29.079.176-61.48.525,4.377-41.646,7.354-90.12,8.929-145.42h-142.996l-4.404,145.42-60.964-.525c-7.711,0-26.454.176-56.23.525Z" fill="#1b1464"/>
    <path d="M1369.064,1632.217c-2.276-37.274-4.901-67.107-7.875-89.508,19.633,8.752,37.122,14.83,52.461,18.243,15.339,3.412,28.796,5.118,40.37,5.118,15.249,0,27.389-2.231,36.42-6.693,9.027-4.462,13.542-11.065,13.542-19.818,0-2.974-.439-5.816-1.317-8.532-.878-2.711-2.542-5.774-4.995-9.187-2.457-3.412-5.964-7.128-10.52-11.155l-49.455-43.049c-11.574-9.799-19.637-16.885-24.198-21.262-9.294-8.924-16.528-17.234-21.701-24.936-5.176-7.698-8.945-15.529-11.311-23.493-2.366-7.961-3.548-16.406-3.548-25.33,0-10.672,1.879-21.131,5.644-31.367,3.761-10.237,9.404-19.818,16.931-28.743,7.522-8.925,17.497-16.623,29.923-23.1,12.423-6.471,25.724-10.892,39.899-13.255,14.174-2.363,28.783-3.543,43.836-3.543,29.571,0,61.771,3.412,96.596,10.236.525,12.075,1.136,23.145,1.838,33.206.697,10.066,2.362,27.693,4.987,52.892-16.103-6.471-30.802-10.979-44.099-13.518-13.301-2.535-24.764-3.806-34.387-3.806-13.649,0-24.981,2.539-33.992,7.612-9.015,5.077-13.518,11.378-13.518,18.899,0,3.503.697,6.916,2.099,10.237,1.399,3.326,4.024,7.218,7.875,11.681,3.848,4.463,8.925,9.364,15.225,14.7,6.3,5.341,16.185,13.257,29.662,23.756l18.899,14.962c5.598,4.553,11.636,10.065,18.112,16.537,6.471,6.476,12.074,12.862,16.799,19.162,4.725,6.3,8.354,12.074,10.894,17.324,2.535,5.25,4.418,10.544,5.644,15.881,1.222,5.34,1.838,11.07,1.838,17.193,0,15.749-3.765,30.756-11.287,45.016-7.527,14.265-18.202,25.987-32.024,35.175-13.826,9.187-29.006,15.617-45.543,19.292-16.536,3.675-33.992,5.513-52.367,5.513-28.348,0-64.137-4.114-107.358-12.338Z" fill="#1b1464"/>
  </g>
  <path d="M1581.708,1058.478c5.475-84.604-46.795-170.254-56.293-181.388-18.245-23.741-166.516-172.103-229.862-215.789-43.975-30.327-108.155-36.225-108.155-36.225,0,0-1.825-6.564-2.229-15.987-1.683-39.321,4.654-78.573,18.259-115.504l20.292-55.083-95.797,58.756c-26.229,16.087-45.841,32.282-60.511,47.48-3.864-41.544,4.699-99.702,20.791-131.373,7.348-14.463,31.131-56.934,31.131-56.934,0,0-85.172-8.756-145.75,25.947-44.528,25.509-74.464,62.768-90.313,101.57-12.363,30.269-15.104,57.212-13.366,79.551-44.233-3.456-83.861.541-119.847,11.99-49.765,15.834-83.433,42.939-110.486,64.718-4.88,3.929-9.489,7.64-13.958,11.098-22.91,17.729-48.803,34.772-76.962,50.657-31.792,17.934-60.214,34.067-84.778,48.07-68.845,39.246-129.155,91.833-177.422,154.683h0s89.33-2.236,100.597-2.085c-3.462,2.796-57.013,49.829-83.918,87.045-36.509,50.501-50.559,101.119-50.559,101.119l101.119-6.255h0c-22.802,32.13-40.589,67.538-52.753,105.011l-1.081,3.331,102.653-1.2h0c11.755-61.983,45.345-138.037,84.616-187.412l-118.84,26.062c5.366-4.573,28.146-49.517,68.281-82.876,42.101-34.993,108.937-77.663,108.937-77.663,0,0-77.082-7.8-81.833-8.34,26.938-15.268,84.371-54.312,128.677-82.031,31.041-19.42,61.397-37.431,87.696-57.782,5.146-3.982,10.308-8.138,15.301-12.158,48.079-38.707,97.795-78.729,232.883-46.618l71.03,17.37-21.633-24.083c-12.4-13.804-27.294-42.504-31.816-58.534-8.756-31.044-7.84-66.592,12.51-96.334,13.552-19.807,16.94-23.455,46.911-45.347-.973,12.104,3.783,67.22,4.235,70.551,6.621,48.811,30.8,93.544,67.434,126.473h0s0,0,0,0c11.823-39.888,35.007-75.47,66.719-102.399l1.562-1.326c-6.776,17.201-21.338,50.95-25.801,84.439-4.463,33.489,4.17,64.372,4.17,64.372,0,0,115.47,12.393,144.155,32.176,39.81,27.455,138.38,146.833,191.158,215.63,0,0,40.088,47.706,40.857,103.851,1.156,84.472,22.05,148.342,22.05,148.342h78.663s-25.136-40.447-18.722-139.568Z" fill="#1b1464"/>
</svg>